<mxfile host="Electron" modified="2024-03-09T15:21:44.070Z" agent="Mozilla/5.0 (Windows NT 10.0; Win64; x64) AppleWebKit/537.36 (KHTML, like Gecko) draw.io/23.1.5 Chrome/120.0.6099.109 Electron/28.1.0 Safari/537.36" etag="dJB3cF_LCe9ZXyYfMzJh" version="23.1.5" type="device">
  <diagram name="Page-1" id="HVXMvawf3mUXOFxWJDEH">
    <mxGraphModel dx="2284" dy="1944" grid="1" gridSize="10" guides="1" tooltips="1" connect="1" arrows="1" fold="1" page="1" pageScale="1" pageWidth="850" pageHeight="1100" math="0" shadow="0">
      <root>
        <mxCell id="0" />
        <mxCell id="1" parent="0" />
        <mxCell id="c8necOCbmcrRLEa_qd-D-2" style="edgeStyle=orthogonalEdgeStyle;rounded=0;orthogonalLoop=1;jettySize=auto;html=1;entryX=0;entryY=0.5;entryDx=0;entryDy=0;" edge="1" parent="1" source="c8necOCbmcrRLEa_qd-D-1" target="c8necOCbmcrRLEa_qd-D-3">
          <mxGeometry relative="1" as="geometry">
            <mxPoint x="510" y="150" as="targetPoint" />
          </mxGeometry>
        </mxCell>
        <mxCell id="c8necOCbmcrRLEa_qd-D-1" value="&lt;b&gt;I Engine extends Runnable&lt;br&gt;&lt;/b&gt;&lt;br&gt;void run();" style="whiteSpace=wrap;html=1;fillColor=#d5e8d4;strokeColor=#82b366;" vertex="1" parent="1">
          <mxGeometry x="290" y="150" width="160" height="60" as="geometry" />
        </mxCell>
        <mxCell id="c8necOCbmcrRLEa_qd-D-3" value="&lt;b&gt;EngineImpl : Engine&lt;br&gt;&lt;/b&gt;&lt;br&gt;Conroller &lt;b&gt;controllerImpl&lt;/b&gt;;&lt;br&gt;InputReader &lt;b&gt;consoleReader&lt;/b&gt;;&lt;br&gt;InputWritter &lt;b&gt;consoleWritter&lt;/b&gt;&lt;br&gt;&lt;br&gt;&lt;b&gt;@ run();&lt;br&gt;&lt;div style=&quot;text-align: left;&quot;&gt;&lt;span style=&quot;background-color: initial; font-weight: normal;&quot;&gt;- read input with ConsoleReader&lt;/span&gt;&lt;/div&gt;&lt;/b&gt;&lt;div style=&quot;text-align: left;&quot;&gt;&lt;span style=&quot;background-color: initial;&quot;&gt;- populate data in ControllerImpl&lt;/span&gt;&lt;/div&gt;&lt;div style=&quot;text-align: left;&quot;&gt;&lt;span style=&quot;background-color: initial;&quot;&gt;- print output with ConsoleWritter&lt;/span&gt;&lt;/div&gt;" style="whiteSpace=wrap;html=1;fillColor=#fff2cc;strokeColor=#d6b656;" vertex="1" parent="1">
          <mxGeometry x="590" y="105" width="319" height="150" as="geometry" />
        </mxCell>
        <mxCell id="c8necOCbmcrRLEa_qd-D-5" value="&lt;font style=&quot;font-size: 16px;&quot;&gt;&lt;b&gt;Core&lt;/b&gt;&lt;/font&gt;" style="text;html=1;align=center;verticalAlign=middle;resizable=0;points=[];autosize=1;strokeColor=#9673a6;fillColor=#e1d5e7;" vertex="1" parent="1">
          <mxGeometry x="485" y="75" width="60" height="30" as="geometry" />
        </mxCell>
        <mxCell id="c8necOCbmcrRLEa_qd-D-7" style="edgeStyle=orthogonalEdgeStyle;rounded=0;orthogonalLoop=1;jettySize=auto;html=1;entryX=0.5;entryY=0;entryDx=0;entryDy=0;" edge="1" parent="1" source="c8necOCbmcrRLEa_qd-D-6" target="c8necOCbmcrRLEa_qd-D-3">
          <mxGeometry relative="1" as="geometry" />
        </mxCell>
        <mxCell id="c8necOCbmcrRLEa_qd-D-6" value="Main&lt;br&gt;&lt;br&gt;Egine engine = new EngineImpl();&lt;br&gt;&lt;br&gt;engine.run();" style="whiteSpace=wrap;html=1;" vertex="1" parent="1">
          <mxGeometry x="400" y="-130" width="230" height="90" as="geometry" />
        </mxCell>
        <mxCell id="c8necOCbmcrRLEa_qd-D-9" value="&lt;b&gt;ControllerImpl : Contrroller&lt;br&gt;&lt;/b&gt;&lt;br&gt;Keeps the business logic of the app&lt;br&gt;&lt;div&gt;&lt;br&gt;&lt;/div&gt;&lt;div&gt;&lt;div&gt;addComputer();&lt;/div&gt;&lt;div&gt;addPeripheral();&lt;/div&gt;&lt;div&gt;removePeripheral();&lt;/div&gt;&lt;div&gt;removeComponent();&lt;/div&gt;&lt;div&gt;buyComputer();&lt;/div&gt;&lt;div&gt;BuyBestComputer();&lt;/div&gt;&lt;div&gt;getComputerData();&lt;/div&gt;&lt;/div&gt;" style="whiteSpace=wrap;html=1;fillColor=#fff2cc;strokeColor=#d6b656;" vertex="1" parent="1">
          <mxGeometry x="620" y="360" width="241" height="210" as="geometry" />
        </mxCell>
        <mxCell id="c8necOCbmcrRLEa_qd-D-10" value="&lt;b&gt;I Controller&amp;nbsp;&lt;br&gt;&lt;/b&gt;&lt;br&gt;&lt;div&gt;&amp;nbsp; &amp;nbsp; String addComputer();&lt;/div&gt;&lt;div&gt;&amp;nbsp; &amp;nbsp; String addPeripheral()&lt;/div&gt;&lt;div&gt;&amp;nbsp; &amp;nbsp; String removePeripheral();&lt;/div&gt;&lt;div&gt;&amp;nbsp; &amp;nbsp; String addComponent();&lt;/div&gt;&lt;div&gt;&amp;nbsp; &amp;nbsp; String removeComponent();&lt;/div&gt;&lt;div&gt;&amp;nbsp; &amp;nbsp; String buyComputer();&lt;/div&gt;&lt;div&gt;&amp;nbsp; &amp;nbsp; String BuyBestComputer();&lt;/div&gt;&lt;div&gt;&amp;nbsp; &amp;nbsp; String getComputerData();&lt;/div&gt;" style="whiteSpace=wrap;html=1;fillColor=#d5e8d4;strokeColor=#82b366;" vertex="1" parent="1">
          <mxGeometry x="240" y="330" width="230" height="190" as="geometry" />
        </mxCell>
        <mxCell id="c8necOCbmcrRLEa_qd-D-11" style="edgeStyle=orthogonalEdgeStyle;rounded=0;orthogonalLoop=1;jettySize=auto;html=1;entryX=-0.013;entryY=0.327;entryDx=0;entryDy=0;entryPerimeter=0;" edge="1" parent="1" source="c8necOCbmcrRLEa_qd-D-10" target="c8necOCbmcrRLEa_qd-D-9">
          <mxGeometry relative="1" as="geometry" />
        </mxCell>
        <mxCell id="c8necOCbmcrRLEa_qd-D-13" value="&lt;b style=&quot;font-size: 16px;&quot;&gt;IO&lt;/b&gt;" style="text;html=1;align=center;verticalAlign=middle;resizable=0;points=[];autosize=1;strokeColor=#9673a6;fillColor=#e1d5e7;fontSize=16;" vertex="1" parent="1">
          <mxGeometry x="1140" y="-40" width="40" height="30" as="geometry" />
        </mxCell>
        <mxCell id="c8necOCbmcrRLEa_qd-D-27" style="edgeStyle=orthogonalEdgeStyle;rounded=0;orthogonalLoop=1;jettySize=auto;html=1;entryX=1;entryY=0.5;entryDx=0;entryDy=0;" edge="1" parent="1" source="c8necOCbmcrRLEa_qd-D-14" target="c8necOCbmcrRLEa_qd-D-17">
          <mxGeometry relative="1" as="geometry" />
        </mxCell>
        <mxCell id="c8necOCbmcrRLEa_qd-D-14" value="&lt;b&gt;I InputReader&lt;br&gt;&lt;/b&gt;&lt;br&gt;String readLine();" style="whiteSpace=wrap;html=1;fillColor=#d5e8d4;strokeColor=#82b366;" vertex="1" parent="1">
          <mxGeometry x="1430" y="260" width="130" height="60" as="geometry" />
        </mxCell>
        <mxCell id="c8necOCbmcrRLEa_qd-D-15" value="&lt;b&gt;I InputWritter&lt;br&gt;&lt;/b&gt;&lt;br&gt;void writeLine(String text);" style="whiteSpace=wrap;html=1;fillColor=#d5e8d4;strokeColor=#82b366;" vertex="1" parent="1">
          <mxGeometry x="1430" y="90" width="130" height="60" as="geometry" />
        </mxCell>
        <mxCell id="c8necOCbmcrRLEa_qd-D-16" value="&lt;b&gt;ConsoleReader : InputReader&lt;/b&gt;&lt;br&gt;&lt;br&gt;&lt;div style=&quot;&quot;&gt;&amp;nbsp; &amp;nbsp;public ConsoleReader()&amp;nbsp;&lt;/div&gt;&lt;div style=&quot;&quot;&gt;&amp;nbsp; &amp;nbsp; &amp;nbsp; &amp;nbsp; this.reader = new BufferedReader(new InputStreamReader(System.in);&lt;/div&gt;&lt;br&gt;&lt;b&gt;@readline()&amp;nbsp;&lt;br&gt;&lt;/b&gt;this.reader.readLine();" style="whiteSpace=wrap;html=1;fillColor=#fff2cc;strokeColor=#d6b656;" vertex="1" parent="1">
          <mxGeometry x="1030" y="90" width="320" height="155" as="geometry" />
        </mxCell>
        <mxCell id="c8necOCbmcrRLEa_qd-D-25" style="edgeStyle=orthogonalEdgeStyle;rounded=0;orthogonalLoop=1;jettySize=auto;html=1;entryX=1;entryY=0.75;entryDx=0;entryDy=0;" edge="1" parent="1" source="c8necOCbmcrRLEa_qd-D-17" target="c8necOCbmcrRLEa_qd-D-3">
          <mxGeometry relative="1" as="geometry" />
        </mxCell>
        <mxCell id="c8necOCbmcrRLEa_qd-D-17" value="&lt;b&gt;ConsoleWritter : InputWritter&lt;/b&gt;&lt;br&gt;&lt;br&gt;&lt;b&gt;@ writeLine(String)&lt;/b&gt; System.out.printLn(String)&amp;nbsp;" style="whiteSpace=wrap;html=1;fillColor=#fff2cc;strokeColor=#d6b656;" vertex="1" parent="1">
          <mxGeometry x="1040" y="270" width="180" height="60" as="geometry" />
        </mxCell>
        <mxCell id="c8necOCbmcrRLEa_qd-D-22" value="Models" style="text;html=1;align=center;verticalAlign=middle;resizable=0;points=[];autosize=1;strokeColor=#9673a6;fillColor=#e1d5e7;fontSize=16;fontStyle=1" vertex="1" parent="1">
          <mxGeometry x="690" y="660" width="80" height="30" as="geometry" />
        </mxCell>
        <mxCell id="c8necOCbmcrRLEa_qd-D-24" style="edgeStyle=orthogonalEdgeStyle;rounded=0;orthogonalLoop=1;jettySize=auto;html=1;entryX=1.003;entryY=0.417;entryDx=0;entryDy=0;entryPerimeter=0;" edge="1" parent="1" source="c8necOCbmcrRLEa_qd-D-16" target="c8necOCbmcrRLEa_qd-D-3">
          <mxGeometry relative="1" as="geometry" />
        </mxCell>
        <mxCell id="c8necOCbmcrRLEa_qd-D-26" style="edgeStyle=orthogonalEdgeStyle;rounded=0;orthogonalLoop=1;jettySize=auto;html=1;entryX=1.013;entryY=0.213;entryDx=0;entryDy=0;entryPerimeter=0;" edge="1" parent="1" source="c8necOCbmcrRLEa_qd-D-15" target="c8necOCbmcrRLEa_qd-D-16">
          <mxGeometry relative="1" as="geometry" />
        </mxCell>
        <mxCell id="c8necOCbmcrRLEa_qd-D-29" style="edgeStyle=orthogonalEdgeStyle;rounded=0;orthogonalLoop=1;jettySize=auto;html=1;entryX=0.47;entryY=0.987;entryDx=0;entryDy=0;entryPerimeter=0;" edge="1" parent="1" source="c8necOCbmcrRLEa_qd-D-9" target="c8necOCbmcrRLEa_qd-D-3">
          <mxGeometry relative="1" as="geometry" />
        </mxCell>
        <mxCell id="c8necOCbmcrRLEa_qd-D-30" value="&lt;b&gt;I Computer : Product&lt;br&gt;&lt;/b&gt;&lt;br&gt;&lt;div style=&quot;text-align: left;&quot;&gt;&amp;nbsp;List&amp;lt;Component&amp;gt; getComponents();&lt;/div&gt;&lt;div style=&quot;text-align: left;&quot;&gt;&lt;span style=&quot;background-color: initial;&quot;&gt;&amp;nbsp;List&amp;lt;Peripheral&amp;gt; getPeripherals();&lt;/span&gt;&lt;/div&gt;&lt;div style=&quot;text-align: left;&quot;&gt;&amp;nbsp;void addComponent(Component component);&lt;/div&gt;&lt;div style=&quot;text-align: left;&quot;&gt;&amp;nbsp;Component removeComponent(String componentType);&lt;/div&gt;&lt;div style=&quot;text-align: left;&quot;&gt;&amp;nbsp;void addPeripheral(Peripheral peripheral);&lt;/div&gt;&lt;div style=&quot;text-align: left;&quot;&gt;&amp;nbsp;Peripheral removePeripheral(String peripheralType);&lt;/div&gt;" style="whiteSpace=wrap;html=1;fillColor=#d5e8d4;strokeColor=#82b366;" vertex="1" parent="1">
          <mxGeometry x="549" y="1290" width="330" height="140" as="geometry" />
        </mxCell>
        <mxCell id="c8necOCbmcrRLEa_qd-D-40" style="edgeStyle=orthogonalEdgeStyle;rounded=0;orthogonalLoop=1;jettySize=auto;html=1;entryX=0;entryY=0.5;entryDx=0;entryDy=0;" edge="1" parent="1" source="c8necOCbmcrRLEa_qd-D-31" target="c8necOCbmcrRLEa_qd-D-38">
          <mxGeometry relative="1" as="geometry" />
        </mxCell>
        <mxCell id="c8necOCbmcrRLEa_qd-D-31" value="&lt;b&gt;I Component : Product&lt;br&gt;&lt;/b&gt;&lt;div&gt;&lt;br&gt;&lt;/div&gt;&lt;div&gt;&amp;nbsp; int getGeneration();&lt;br&gt;&lt;/div&gt;" style="whiteSpace=wrap;html=1;fillColor=#d5e8d4;strokeColor=#82b366;" vertex="1" parent="1">
          <mxGeometry x="-290" y="1135" width="160" height="60" as="geometry" />
        </mxCell>
        <mxCell id="c8necOCbmcrRLEa_qd-D-49" style="edgeStyle=orthogonalEdgeStyle;rounded=0;orthogonalLoop=1;jettySize=auto;html=1;entryX=1;entryY=0.25;entryDx=0;entryDy=0;" edge="1" parent="1" source="c8necOCbmcrRLEa_qd-D-32" target="c8necOCbmcrRLEa_qd-D-46">
          <mxGeometry relative="1" as="geometry" />
        </mxCell>
        <mxCell id="c8necOCbmcrRLEa_qd-D-32" value="&lt;b&gt;I Peripheral : Product&lt;br&gt;&lt;/b&gt;&lt;br&gt;String getConnectionType();" style="whiteSpace=wrap;html=1;fillColor=#d5e8d4;strokeColor=#82b366;" vertex="1" parent="1">
          <mxGeometry x="1350" y="1100" width="170" height="60" as="geometry" />
        </mxCell>
        <mxCell id="c8necOCbmcrRLEa_qd-D-33" value="&lt;b&gt;I Product&lt;br&gt;&lt;br&gt;&lt;/b&gt;&lt;div&gt;&lt;div style=&quot;text-align: left;&quot;&gt;&amp;nbsp; &amp;nbsp;int getId();&lt;/div&gt;&lt;div style=&quot;text-align: left;&quot;&gt;&amp;nbsp; &amp;nbsp;String getManufacturer();&lt;/div&gt;&lt;div style=&quot;text-align: left;&quot;&gt;&amp;nbsp; &amp;nbsp;String getModel();&lt;/div&gt;&lt;div style=&quot;text-align: left;&quot;&gt;&amp;nbsp; &amp;nbsp;double getPrice();&lt;/div&gt;&lt;div style=&quot;text-align: left;&quot;&gt;&amp;nbsp; &amp;nbsp;double getOverallPerformance();&lt;/div&gt;&lt;/div&gt;" style="whiteSpace=wrap;html=1;fillColor=#d5e8d4;strokeColor=#82b366;" vertex="1" parent="1">
          <mxGeometry x="120" y="820" width="195" height="120" as="geometry" />
        </mxCell>
        <mxCell id="c8necOCbmcrRLEa_qd-D-34" value="&lt;b&gt;BaseProduct : Product&lt;/b&gt;&lt;br&gt;&lt;br&gt;&lt;div style=&quot;text-align: left;&quot;&gt;int id;&lt;/div&gt;&lt;div style=&quot;text-align: left;&quot;&gt;String manufacturer;&lt;/div&gt;&lt;div style=&quot;text-align: left;&quot;&gt;String model;&lt;/div&gt;&lt;div style=&quot;text-align: left;&quot;&gt;double price;&lt;/div&gt;&lt;div style=&quot;text-align: left;&quot;&gt;double overallPerformance;&lt;/div&gt;&lt;br&gt;&lt;div style=&quot;border-color: var(--border-color); text-align: left;&quot;&gt;&amp;nbsp;@int getId();&lt;/div&gt;&lt;div style=&quot;border-color: var(--border-color); text-align: left;&quot;&gt;&amp;nbsp;@String getManufacturer();&lt;/div&gt;&lt;div style=&quot;border-color: var(--border-color); text-align: left;&quot;&gt;&amp;nbsp;@String getModel();&lt;/div&gt;&lt;div style=&quot;border-color: var(--border-color); text-align: left;&quot;&gt;&amp;nbsp;@double getPrice();&lt;/div&gt;&lt;div style=&quot;border-color: var(--border-color); text-align: left;&quot;&gt;&amp;nbsp;@double getOverallPerformance()&lt;/div&gt;" style="whiteSpace=wrap;html=1;fillColor=#fff2cc;strokeColor=#d6b656;" vertex="1" parent="1">
          <mxGeometry x="560" y="800" width="319" height="240" as="geometry" />
        </mxCell>
        <mxCell id="c8necOCbmcrRLEa_qd-D-36" style="edgeStyle=orthogonalEdgeStyle;rounded=0;orthogonalLoop=1;jettySize=auto;html=1;entryX=-0.003;entryY=0.333;entryDx=0;entryDy=0;entryPerimeter=0;" edge="1" parent="1" source="c8necOCbmcrRLEa_qd-D-33" target="c8necOCbmcrRLEa_qd-D-34">
          <mxGeometry relative="1" as="geometry" />
        </mxCell>
        <mxCell id="c8necOCbmcrRLEa_qd-D-37" value="CentralProcessingUnit&lt;br&gt;&lt;br&gt;static final double OVERALL_PERFORMANCE_MULTIPLIER&amp;nbsp;&lt;br&gt;&lt;span class=&quot;CodeChar&quot;&gt;&lt;/span&gt;&lt;span style=&quot;font-size:11.0pt;line-height:115%;font-family:&amp;quot;Calibri&amp;quot;,sans-serif;&lt;br/&gt;mso-ascii-theme-font:minor-latin;mso-fareast-font-family:Calibri;mso-fareast-theme-font:&lt;br/&gt;minor-latin;mso-hansi-theme-font:minor-latin;mso-bidi-font-family:Arial;&lt;br/&gt;mso-bidi-theme-font:minor-bidi;mso-ansi-language:EN-US;mso-fareast-language:&lt;br/&gt;EN-US;mso-bidi-language:AR-SA&quot;&gt;&lt;/span&gt;" style="whiteSpace=wrap;html=1;fillColor=#fff2cc;strokeColor=#d6b656;" vertex="1" parent="1">
          <mxGeometry x="-20" y="1280" width="360" height="80" as="geometry" />
        </mxCell>
        <mxCell id="c8necOCbmcrRLEa_qd-D-38" value="&lt;b&gt;BaseComponent : extendes BaseProduct , implements Component&lt;/b&gt;&lt;br&gt;&lt;br&gt;&lt;br&gt;&lt;div style=&quot;border-color: var(--border-color); text-align: left;&quot;&gt;&amp;nbsp;private int generation;&lt;br&gt;&lt;/div&gt;&lt;div style=&quot;border-color: var(--border-color); text-align: left;&quot;&gt;&lt;br&gt;&lt;/div&gt;&lt;div style=&quot;border-color: var(--border-color); text-align: left;&quot;&gt;@ getGeneration();&lt;/div&gt;" style="whiteSpace=wrap;html=1;fillColor=#fff2cc;strokeColor=#d6b656;" vertex="1" parent="1">
          <mxGeometry x="10.5" y="1100" width="319" height="130" as="geometry" />
        </mxCell>
        <mxCell id="c8necOCbmcrRLEa_qd-D-39" style="edgeStyle=orthogonalEdgeStyle;rounded=0;orthogonalLoop=1;jettySize=auto;html=1;entryX=1;entryY=0.45;entryDx=0;entryDy=0;entryPerimeter=0;" edge="1" parent="1" source="c8necOCbmcrRLEa_qd-D-34" target="c8necOCbmcrRLEa_qd-D-38">
          <mxGeometry relative="1" as="geometry" />
        </mxCell>
        <mxCell id="c8necOCbmcrRLEa_qd-D-42" style="edgeStyle=orthogonalEdgeStyle;rounded=0;orthogonalLoop=1;jettySize=auto;html=1;entryX=0.529;entryY=0;entryDx=0;entryDy=0;entryPerimeter=0;" edge="1" parent="1" source="c8necOCbmcrRLEa_qd-D-38" target="c8necOCbmcrRLEa_qd-D-37">
          <mxGeometry relative="1" as="geometry" />
        </mxCell>
        <mxCell id="c8necOCbmcrRLEa_qd-D-44" value="Motherboard&lt;br&gt;&lt;br&gt;static final double OVERALL_PERFORMANCE_MULTIPLIER&amp;nbsp;&lt;br&gt;&lt;span class=&quot;CodeChar&quot;&gt;&lt;/span&gt;&lt;span style=&quot;font-size:11.0pt;line-height:115%;font-family:&amp;quot;Calibri&amp;quot;,sans-serif;&lt;br/&gt;mso-ascii-theme-font:minor-latin;mso-fareast-font-family:Calibri;mso-fareast-theme-font:&lt;br/&gt;minor-latin;mso-hansi-theme-font:minor-latin;mso-bidi-font-family:Arial;&lt;br/&gt;mso-bidi-theme-font:minor-bidi;mso-ansi-language:EN-US;mso-fareast-language:&lt;br/&gt;EN-US;mso-bidi-language:AR-SA&quot;&gt;&lt;/span&gt;" style="whiteSpace=wrap;html=1;fillColor=#fff2cc;strokeColor=#d6b656;" vertex="1" parent="1">
          <mxGeometry x="-20" y="1470" width="360" height="80" as="geometry" />
        </mxCell>
        <mxCell id="c8necOCbmcrRLEa_qd-D-45" value="VideoCard&lt;br&gt;static final double OVERALL_PERFORMANCE_MULTIPLIER&amp;nbsp;&lt;br&gt;&lt;span class=&quot;CodeChar&quot;&gt;&lt;/span&gt;&lt;span style=&quot;font-size:11.0pt;line-height:115%;font-family:&amp;quot;Calibri&amp;quot;,sans-serif;&lt;br/&gt;mso-ascii-theme-font:minor-latin;mso-fareast-font-family:Calibri;mso-fareast-theme-font:&lt;br/&gt;minor-latin;mso-hansi-theme-font:minor-latin;mso-bidi-font-family:Arial;&lt;br/&gt;mso-bidi-theme-font:minor-bidi;mso-ansi-language:EN-US;mso-fareast-language:&lt;br/&gt;EN-US;mso-bidi-language:AR-SA&quot;&gt;&lt;/span&gt;" style="whiteSpace=wrap;html=1;fillColor=#fff2cc;strokeColor=#d6b656;" vertex="1" parent="1">
          <mxGeometry x="-20" y="1370" width="360" height="80" as="geometry" />
        </mxCell>
        <mxCell id="c8necOCbmcrRLEa_qd-D-46" value="&lt;b&gt;BasePeripheral : extendes BaseProduct , implements Peripheral&lt;/b&gt;&lt;br&gt;&lt;br&gt;&lt;br&gt;&lt;div style=&quot;border-color: var(--border-color); text-align: left;&quot;&gt;&amp;nbsp;private String connectionType&lt;br&gt;&lt;/div&gt;&lt;div style=&quot;border-color: var(--border-color); text-align: left;&quot;&gt;&lt;br&gt;&lt;/div&gt;&lt;div style=&quot;border-color: var(--border-color); text-align: left;&quot;&gt;@ getConenctionType();&lt;/div&gt;" style="whiteSpace=wrap;html=1;fillColor=#fff2cc;strokeColor=#d6b656;" vertex="1" parent="1">
          <mxGeometry x="1000" y="1100" width="319" height="130" as="geometry" />
        </mxCell>
        <mxCell id="c8necOCbmcrRLEa_qd-D-48" style="edgeStyle=orthogonalEdgeStyle;rounded=0;orthogonalLoop=1;jettySize=auto;html=1;entryX=0.207;entryY=-0.023;entryDx=0;entryDy=0;entryPerimeter=0;" edge="1" parent="1" source="c8necOCbmcrRLEa_qd-D-34" target="c8necOCbmcrRLEa_qd-D-46">
          <mxGeometry relative="1" as="geometry" />
        </mxCell>
        <mxCell id="c8necOCbmcrRLEa_qd-D-51" value="&lt;b&gt;BaseComputer : extends BaseProduct, implements Computer&lt;/b&gt;&lt;br&gt;&lt;br&gt;List&amp;lt;Components&amp;gt;&lt;br&gt;List&amp;lt;Peripherals&amp;gt;&lt;br&gt;&lt;div style=&quot;border-color: var(--border-color); text-align: left;&quot;&gt;&lt;br&gt;&lt;/div&gt;" style="whiteSpace=wrap;html=1;fillColor=#fff2cc;strokeColor=#d6b656;" vertex="1" parent="1">
          <mxGeometry x="545.5" y="1110" width="319" height="110" as="geometry" />
        </mxCell>
        <mxCell id="c8necOCbmcrRLEa_qd-D-52" style="edgeStyle=orthogonalEdgeStyle;rounded=0;orthogonalLoop=1;jettySize=auto;html=1;entryX=0.542;entryY=0.009;entryDx=0;entryDy=0;entryPerimeter=0;" edge="1" parent="1" source="c8necOCbmcrRLEa_qd-D-34" target="c8necOCbmcrRLEa_qd-D-51">
          <mxGeometry relative="1" as="geometry" />
        </mxCell>
        <mxCell id="c8necOCbmcrRLEa_qd-D-53" style="edgeStyle=orthogonalEdgeStyle;rounded=0;orthogonalLoop=1;jettySize=auto;html=1;entryX=0.536;entryY=1.027;entryDx=0;entryDy=0;entryPerimeter=0;" edge="1" parent="1" source="c8necOCbmcrRLEa_qd-D-30" target="c8necOCbmcrRLEa_qd-D-51">
          <mxGeometry relative="1" as="geometry" />
        </mxCell>
      </root>
    </mxGraphModel>
  </diagram>
</mxfile>
